HIERARCHY
ROOT Hips
{
	OFFSET 0.00000 0.00000 0.00000
	CHANNELS 6 Xposition Yposition Zposition Zrotation Yrotation Xrotation 
	JOINT LHipJoint
	{
		OFFSET 0 0 0
		CHANNELS 3 Zrotation Yrotation Xrotation
		JOINT LeftHip
		{
			OFFSET 1.64577 -1.42384 0.94276
			CHANNELS 3 Zrotation Yrotation Xrotation
			JOINT LeftKnee
			{
				OFFSET 2.11538 -5.81197 0.00000
				CHANNELS 3 Zrotation Yrotation Xrotation
				JOINT LeftAnkle
				{
					OFFSET 2.36541 -6.49893 0.00000
					CHANNELS 3 Zrotation Yrotation Xrotation
					JOINT LeftToe
					{
						OFFSET 0.17759 -0.48793 1.73865
						CHANNELS 3 Zrotation Yrotation Xrotation
						End Site
						{
							OFFSET 0.00000 -0.00000 0.91205
						}
					}
				}
			}
		}
	}
	JOINT RHipJoint
	{
		OFFSET 0 0 0
		CHANNELS 3 Zrotation Yrotation Xrotation
		JOINT RightHip
		{
			OFFSET -1.43750 -1.42384 0.94276
			CHANNELS 3 Zrotation Yrotation Xrotation
			JOINT RightKnee
			{
				OFFSET -2.10480 -5.78291 0.00000
				CHANNELS 3 Zrotation Yrotation Xrotation
				JOINT RightAnkle
				{
					OFFSET -2.34880 -6.45329 0.00000
					CHANNELS 3 Zrotation Yrotation Xrotation
					JOINT RightToe
					{
						OFFSET -0.22842 -0.62757 1.80469
						CHANNELS 3 Zrotation Yrotation Xrotation
						End Site
						{
							OFFSET -0.00000 -0.00000 0.95886
						}
					}
				}
			}
		}
	}
	JOINT lowerback
	{
		OFFSET 0 0 0
		CHANNELS 3 Zrotation Yrotation Xrotation
		JOINT Chest
		{
			OFFSET 0.06217 1.93758 -0.49272
			CHANNELS 3 Zrotation Yrotation Xrotation
			JOINT Chest2
			{
				OFFSET -0.03114 2.03621 -0.05830
				CHANNELS 3 Zrotation Yrotation Xrotation
				JOINT lowerneck
				{
					OFFSET 0 0 0
					CHANNELS 3 Zrotation Yrotation Xrotation
					JOINT Neck
					{
						OFFSET 0.04421 1.41010 0.26562
						CHANNELS 3 Zrotation Yrotation Xrotation
						JOINT Head
						{
							OFFSET -0.13407 1.43847 0.06181
							CHANNELS 3 Zrotation Yrotation Xrotation
							End Site
							{
								OFFSET -0.04980 1.45844 -0.00689
							}
						}
					}
				}
				JOINT LeftCollar
				{
					OFFSET 0 0 0
					CHANNELS 3 Zrotation Yrotation Xrotation
					JOINT LeftShoulder
					{
						OFFSET 2.18382 1.47753 -0.35694
CHANNELS 3 Zrotation Xrotation Yrotation
						JOINT LeftElbow
						{
OFFSET 0 -5.054600 0.000000
CHANNELS 3 Zrotation Xrotation Yrotation
							JOINT LeftWrist
							{
OFFSET 0 -3.390130 0.000000
CHANNELS 3 Zrotation Xrotation Yrotation
								JOINT lhand
								{
									OFFSET 0 0 0
CHANNELS 3 Zrotation Xrotation Yrotation
									JOINT LFingers
									{
OFFSET 0 -0.572420 -0.000000
CHANNELS 3 Zrotation Xrotation Yrotation
										End Site
										{
OFFSET 0 -0.461500 -0.000000
										}
									}
								}
								JOINT LThumb
								{
OFFSET 0 0.000000 0.000000
CHANNELS 3 Zrotation Xrotation Yrotation
									End Site
									{
OFFSET 0 -0.468550 0.468550
									}
								}
							}
						}
					}
				}
				JOINT RightCollar
				{
					OFFSET 0 0 0
					CHANNELS 3 Zrotation Yrotation Xrotation
					JOINT RightShoulder
					{
						OFFSET -2.06033 1.72839 -0.47437
CHANNELS 3 Zrotation Xrotation Yrotation
						JOINT RightElbow
						{
OFFSET 0 -5.070100 0.000000
CHANNELS 3 Zrotation Xrotation Yrotation
							JOINT RightWrist
							{
OFFSET 0 -3.149570 -0.000000
CHANNELS 3 Zrotation Xrotation Yrotation
								JOINT rhand
								{
									OFFSET 0 0 0
CHANNELS 3 Zrotation Xrotation Yrotation
									JOINT RFingers
									{
OFFSET 0 -0.718190 -0.000000
CHANNELS 3 Zrotation Xrotation Yrotation
										End Site
										{
OFFSET 0 -0.579020 -0.000000
										}
									}
								}
								JOINT RThumb
								{
OFFSET 0 0.000000 0.000000
CHANNELS 3 Zrotation Xrotation Yrotation
									End Site
									{
OFFSET 0 -0.587860 0.587860
									}
								}
							}
						}
					}
				}
			}
		}
	}
}
MOTION
Frames: 12
Frame Time: 0.008333333333333333
31.827222 15.204733 1.064655 23.732772 94.936352 18.622405 0.000000 0.000000 0.000000 -16.927436 -19.077384 -12.139643 4.296984 12.544507 37.687923 0.746201 4.777382 -18.741987 0.245002 -3.180476 -8.781992 0.000000 0.000000 0.000000 25.209787 15.250101 -11.826486 -4.052490 -12.229232 36.548822 -0.199923 -16.711558 -25.456359 -0.944275 6.186520 -17.327279 -0.833009 -0.414755 14.072665 -1.154808 -0.229804 7.575584 -0.701600 0.067692 0.087433 8.151065 11.382618 -7.866634 -9.745184 14.976107 2.747239 -3.285558 7.233631 3.433929 0.000000 0.000000 0.000000 8.662067 6.927830 -28.400907 78.223132 -59.462220 49.819795 24.373469 -24.822450 -3.788040 0.000000 0.000000 0.000000 -7.125000 0.000000 0.000000 -1.854760 34.132789 -0.494970 0.000000 0.000000 0.000000 -16.492962 24.888413 45.313097 -76.837545 -59.335119 -48.626469 -35.619606 -44.465589 -10.237902 0.000000 0.000000 0.000000 7.125000 0.000000 0.000000 -6.007171 17.495644 -3.944335
31.877231 15.214000 1.077154 22.437281 94.983786 17.470716 0.000000 0.000000 0.000000 -17.046031 -19.314627 -11.780663 4.229400 12.459536 37.377663 0.750081 4.980671 -18.914201 0.262850 -3.298295 -9.110348 0.000000 0.000000 0.000000 25.300853 15.529579 -11.442422 -3.994513 -12.153154 36.275838 -0.218818 -16.975482 -25.956686 -0.905205 6.062932 -16.967139 -0.774525 -0.346631 13.965074 -1.177311 -0.136432 7.533646 -0.770804 0.114785 0.100157 8.292662 11.419780 -7.805435 -9.977989 15.026243 2.628465 -3.375293 7.256822 3.422471 0.000000 0.000000 0.000000 8.718901 6.989968 -28.466821 77.242453 -59.375297 48.974865 23.986819 -24.616863 -3.796321 0.000000 0.000000 0.000000 -7.125000 0.000000 0.000000 -2.173081 34.127619 -0.579939 0.000000 0.000000 0.000000 -16.318141 25.002136 44.928666 -76.767867 -59.327975 -48.566530 -35.735986 -44.435586 -10.058505 0.000000 0.000000 0.000000 7.125000 0.000000 0.000000 -6.110834 17.695251 -3.987040
31.924851 15.221534 1.089456 21.356769 95.053143 16.548927 0.000000 0.000000 0.000000 -17.129419 -19.503311 -11.520271 4.180466 12.396226 37.149272 0.755368 5.102452 -19.049701 0.261917 -3.292559 -9.094313 0.000000 0.000000 0.000000 25.384655 15.724899 -11.169970 -3.953355 -12.097724 36.078963 -0.249263 -17.155804 -26.426877 -0.865774 5.929920 -16.582098 -0.805109 -0.350986 13.819690 -1.190684 -0.152086 7.464876 -0.765241 0.103208 0.104995 8.745470 11.564300 -7.424092 -10.485882 15.224638 2.366242 -3.597222 7.360737 3.378652 0.000000 0.000000 0.000000 8.749036 7.190713 -28.292201 76.225388 -59.262328 48.101042 23.716199 -24.318838 -3.911501 0.000000 0.000000 0.000000 -7.125000 0.000000 0.000000 -2.402301 34.242765 -0.633365 0.000000 0.000000 0.000000 -16.285035 25.049860 44.839576 -76.584712 -59.308692 -48.409016 -35.841111 -44.384510 -9.832774 0.000000 0.000000 0.000000 7.125000 0.000000 0.000000 -6.213090 17.954018 -4.017900
31.972471 15.229067 1.101759 20.276257 95.122500 15.627137 0.000000 0.000000 0.000000 -17.212806 -19.691996 -11.259880 4.131533 12.332917 36.920881 0.760656 5.224233 -19.185201 0.260984 -3.286822 -9.078278 0.000000 0.000000 0.000000 25.468458 15.920218 -10.897518 -3.912197 -12.042294 35.882089 -0.279708 -17.336125 -26.897067 -0.826344 5.796907 -16.197057 -0.835692 -0.355340 13.674307 -1.204058 -0.167741 7.396106 -0.759677 0.091631 0.109833 9.198279 11.708820 -7.042749 -10.993775 15.423033 2.104019 -3.819151 7.464651 3.334833 0.000000 0.000000 0.000000 8.779170 7.391458 -28.117582 75.208324 -59.149359 47.227218 23.445578 -24.020814 -4.026682 0.000000 0.000000 0.000000 -7.125000 0.000000 0.000000 -2.631522 34.357911 -0.686791 0.000000 0.000000 0.000000 -16.251928 25.097584 44.750487 -76.401557 -59.289409 -48.251503 -35.946235 -44.333434 -9.607044 0.000000 0.000000 0.000000 7.125000 0.000000 0.000000 -6.315346 18.212785 -4.048760
32.020015 15.236706 1.113896 19.195634 95.193179 14.704786 0.000000 0.000000 0.000000 -17.297257 -19.877424 -11.006276 4.084676 12.272136 36.701822 0.766709 5.337684 -19.322767 0.258266 -3.269428 -9.029756 0.000000 0.000000 0.000000 25.544310 16.095540 -10.639880 -3.872868 -11.989210 35.693731 -0.311580 -17.497650 -27.351711 -0.788368 5.667663 -15.823239 -0.869388 -0.357380 13.521249 -1.210557 -0.179897 7.334686 -0.745667 0.081735 0.126626 9.586640 11.844635 -6.734827 -11.439569 15.609699 1.892145 -4.009286 7.560853 3.306914 0.000000 0.000000 0.000000 8.800765 7.575482 -27.947909 74.150387 -59.026044 46.319034 23.187640 -23.714189 -4.137493 0.000000 0.000000 0.000000 -7.125000 0.000000 0.000000 -2.850247 34.468611 -0.737352 0.000000 0.000000 0.000000 -16.225268 25.131442 44.648016 -76.197037 -59.267570 -48.075660 -36.040065 -44.281498 -9.390184 0.000000 0.000000 0.000000 7.125000 0.000000 0.000000 -6.408627 18.462512 -4.074733
32.067151 15.244896 1.125162 18.114431 95.270830 13.779472 0.000000 0.000000 0.000000 -17.387314 -20.045685 -10.788459 4.048771 12.224688 36.531972 0.776799 5.407214 -19.471227 0.246137 -3.190568 -8.809935 0.000000 0.000000 0.000000 25.578246 16.165415 -10.460353 -3.843183 -11.948501 35.550283 -0.350976 -17.560061 -27.724380 -0.758061 5.558289 -15.508592 -0.919497 -0.347220 13.327726 -1.180803 -0.173608 7.312016 -0.687127 0.080698 0.206454 9.635194 11.934554 -6.814033 -11.557929 15.734521 1.945744 -4.031783 7.616387 3.362828 0.000000 0.000000 0.000000 8.777335 7.671345 -27.804323 72.876939 -58.848176 45.229675 22.996571 -23.362220 -4.225270 0.000000 0.000000 0.000000 -7.125000 0.000000 0.000000 -3.013636 34.555869 -0.772809 0.000000 0.000000 0.000000 -16.232594 25.092184 44.474986 -75.879867 -59.232252 -47.803173 -36.074346 -44.225031 -9.220091 0.000000 0.000000 0.000000 7.125000 0.000000 0.000000 -6.454589 18.664570 -4.074940
32.114288 15.253086 1.136428 17.033227 95.348481 12.854158 0.000000 0.000000 0.000000 -17.477371 -20.213946 -10.570643 4.012865 12.177241 36.362121 0.786890 5.476744 -19.619686 0.234007 -3.111707 -8.590114 0.000000 0.000000 0.000000 25.612181 16.235290 -10.280826 -3.813498 -11.907792 35.406834 -0.390372 -17.622472 -28.097049 -0.727754 5.448914 -15.193945 -0.969605 -0.337060 13.134204 -1.151048 -0.167318 7.289346 -0.628586 0.079661 0.286282 9.683747 12.024473 -6.893239 -11.676288 15.859343 1.999342 -4.054280 7.671921 3.418742 0.000000 0.000000 0.000000 8.753905 7.767208 -27.660736 71.603492 -58.670308 44.140316 22.805502 -23.010251 -4.313046 0.000000 0.000000 0.000000 -7.125000 0.000000 0.000000 -3.177024 34.643127 -0.808265 0.000000 0.000000 0.000000 -16.239920 25.052927 44.301956 -75.562697 -59.196934 -47.530687 -36.108627 -44.168564 -9.049999 0.000000 0.000000 0.000000 7.125000 0.000000 0.000000 -6.500550 18.866629 -4.075148
32.160460 15.261083 1.147409 16.063924 95.421541 12.042571 0.000000 0.000000 0.000000 -17.552241 -20.371629 -10.373026 3.978438 12.131556 36.198900 0.797229 5.533181 -19.761140 0.221042 -3.024959 -8.348468 0.000000 0.000000 0.000000 25.645263 16.298178 -10.119728 -3.785787 -11.869682 35.272678 -0.427885 -17.672570 -28.437627 -0.700780 5.350640 -14.911472 -1.002791 -0.324091 12.945336 -1.122029 -0.156089 7.259726 -0.580936 0.081416 0.356286 9.755485 12.120461 -6.931099 -11.813793 15.993917 2.037203 -4.087355 7.733561 3.468146 0.000000 0.000000 0.000000 8.737682 7.860913 -27.517333 70.266257 -58.468586 42.998739 22.622770 -22.666619 -4.377775 0.000000 0.000000 0.000000 -7.125000 0.000000 0.000000 -3.332038 34.705722 -0.843326 0.000000 0.000000 0.000000 -16.237459 25.024770 44.122324 -75.231406 -59.159210 -47.246163 -36.138887 -44.128441 -8.908325 0.000000 0.000000 0.000000 7.125000 0.000000 0.000000 -6.540020 19.034750 -4.075998
32.203968 15.268548 1.157603 15.403874 95.481913 11.545288 0.000000 0.000000 0.000000 -17.585140 -20.500080 -10.231237 3.948097 12.090744 36.054000 0.808253 5.553431 -19.883232 0.205767 -2.916414 -8.046504 0.000000 0.000000 0.000000 25.675984 16.341756 -10.009558 -3.763532 -11.838753 35.164202 -0.460196 -17.688639 -28.689518 -0.683018 5.283045 -14.717915 -0.989210 -0.303356 12.769334 -1.095039 -0.131208 7.210896 -0.563380 0.090885 0.399137 9.891296 12.233222 -6.854692 -12.004205 16.155439 2.031570 -4.149662 7.812076 3.499559 0.000000 0.000000 0.000000 8.741380 7.948655 -27.374437 68.752738 -58.200937 41.712851 22.463079 -22.346028 -4.378812 0.000000 0.000000 0.000000 -7.125000 0.000000 0.000000 -3.463910 34.700158 -0.877296 0.000000 0.000000 0.000000 -16.207946 25.027293 43.924447 -74.861087 -59.114838 -46.928371 -36.158032 -44.133486 -8.845188 0.000000 0.000000 0.000000 7.125000 0.000000 0.000000 -6.561550 19.109084 -4.078624
32.247476 15.276012 1.167798 14.743824 95.542285 11.048004 0.000000 0.000000 0.000000 -17.618039 -20.628531 -10.089447 3.917755 12.049931 35.909100 0.819277 5.573682 -20.005324 0.190493 -2.807869 -7.744539 0.000000 0.000000 0.000000 25.706706 16.385333 -9.899389 -3.741277 -11.807824 35.055725 -0.492508 -17.704708 -28.941408 -0.665255 5.215451 -14.524358 -0.975629 -0.282622 12.593333 -1.068050 -0.106326 7.162066 -0.545825 0.100353 0.441988 10.027108 12.345984 -6.778285 -12.194617 16.316961 2.025938 -4.211970 7.890591 3.530972 0.000000 0.000000 0.000000 8.745078 8.036396 -27.231541 67.239219 -57.933288 40.426963 22.303389 -22.025437 -4.379849 0.000000 0.000000 0.000000 -7.125000 0.000000 0.000000 -3.595782 34.694594 -0.911266 0.000000 0.000000 0.000000 -16.178434 25.029816 43.726570 -74.490768 -59.070466 -46.610579 -36.177177 -44.138531 -8.782051 0.000000 0.000000 0.000000 7.125000 0.000000 0.000000 -6.583079 19.183417 -4.081251
32.288902 15.282847 1.178146 14.109214 95.586923 10.570709 0.000000 0.000000 0.000000 -17.645680 -20.736002 -9.957414 3.888763 12.010751 35.770242 0.829671 5.589357 -20.117466 0.177802 -2.715546 -7.487862 0.000000 0.000000 0.000000 25.734857 16.441597 -9.795904 -3.720834 -11.779312 34.955849 -0.519407 -17.726742 -29.159825 -0.649832 5.156250 -14.354916 -0.956598 -0.252002 12.442218 -1.048889 -0.068166 7.110010 -0.540945 0.116944 0.468257 10.237040 12.476613 -6.610545 -12.465783 16.505362 1.954141 -4.312533 7.985766 3.545532 0.000000 0.000000 0.000000 8.768379 8.102362 -27.099739 65.654986 -57.623296 39.086532 22.172184 -21.731237 -4.411120 0.000000 0.000000 0.000000 -7.125000 0.000000 0.000000 -3.706469 34.722723 -0.936688 0.000000 0.000000 0.000000 -16.083684 25.045450 43.453519 -74.281377 -59.045467 -46.430886 -36.183852 -44.069353 -8.658497 0.000000 0.000000 0.000000 7.125000 0.000000 0.000000 -6.603503 19.332899 -4.071858
32.326811 15.288618 1.188756 13.517553 95.604997 10.127162 0.000000 0.000000 0.000000 -17.664445 -20.808055 -9.841853 3.862050 11.974327 35.641584 0.839001 5.597305 -20.212811 0.169474 -2.650612 -7.307645 0.000000 0.000000 0.000000 25.758667 16.519283 -9.703704 -3.703452 -11.754879 34.870491 -0.537170 -17.758846 -29.321727 -0.638359 5.111222 -14.226189 -0.928364 -0.204692 12.333119 -1.042945 -0.007586 7.052506 -0.557463 0.145557 0.466529 10.572110 12.637410 -6.288607 -12.873286 16.739145 1.770640 -4.477684 8.109067 3.531640 0.000000 0.000000 0.000000 8.824777 8.131563 -26.986667 63.951366 -57.241815 37.654016 22.089073 -21.481593 -4.493436 0.000000 0.000000 0.000000 -7.125000 0.000000 0.000000 -3.781390 34.807734 -0.947677 0.000000 0.000000 0.000000 -15.878792 25.083222 43.053549 -74.343684 -59.053173 -46.484347 -36.169476 -43.874863 -8.432940 0.000000 0.000000 0.000000 7.125000 0.000000 0.000000 -6.622060 19.609257 -4.042173
